<?xml version="1.0" standalone="no"?>
<!DOCTYPE svg PUBLIC "-//W3C//DTD SVG 20010904//EN"
 "http://www.w3.org/TR/2001/REC-SVG-20010904/DTD/svg10.dtd">
<svg version="1.0" xmlns="http://www.w3.org/2000/svg"
 width="200.000000pt" height="200.000000pt" viewBox="0 0 2000.000000 2000.000000"
 preserveAspectRatio="xMidYMid meet">

<g transform="translate(0.000000,2000.000000) scale(0.100000,-0.100000)"
fill="#1bc99a" stroke="none">
<path d="M6203 18933 c-34 -202 45 -1117 153 -1768 150 -898 433 -1854 720
-2426 393 -785 1039 -1401 1885 -1796 173 -81 227 -90 276 -49 43 36 58 88 88
306 90 660 96 1179 19 1640 -40 241 -130 554 -221 770 -128 301 -357 709 -589
1045 -72 105 -134 197 -139 204 -11 19 34 -13 160 -113 693 -552 1096 -1286
1219 -2216 53 -397 51 -824 -9 -2785 -14 -440 -29 -971 -35 -1180 -11 -408
-19 -468 -66 -537 -28 -39 -81 -80 -129 -98 -16 -6 -97 -31 -180 -55 -274 -79
-485 -176 -710 -326 -333 -222 -632 -541 -829 -883 -154 -267 -258 -583 -302
-916 -23 -178 -15 -526 16 -700 117 -657 457 -1159 1095 -1615 243 -173 438
-281 1143 -630 711 -353 981 -499 1216 -657 141 -95 226 -188 292 -320 130
-257 96 -583 -90 -862 -150 -225 -374 -348 -663 -363 l-112 -6 -3 669 c-3 598
-6 675 -21 729 -34 118 -106 185 -246 229 -72 23 -384 96 -409 96 -9 0 -13
-232 -14 -924 l-3 -924 -519 179 c-285 98 -520 179 -522 181 -2 2 71 69 162
148 229 199 299 282 375 444 93 200 111 437 47 646 -89 293 -328 529 -635 629
-396 129 -850 -1 -1102 -316 -72 -90 -160 -263 -191 -373 -83 -299 -61 -563
72 -864 154 -351 421 -636 793 -848 139 -79 376 -181 575 -247 222 -74 283
-88 485 -111 98 -11 203 -27 231 -34 115 -30 189 -97 219 -199 21 -70 35 -247
35 -446 0 -149 2 -167 22 -202 l22 -39 313 0 313 0 0 389 0 389 78 26 c42 14
201 61 352 105 470 137 654 204 887 326 464 242 810 589 1028 1030 269 544
337 1319 170 1929 -99 360 -266 653 -525 920 -295 304 -593 482 -1640 981
-930 444 -1078 529 -1285 746 -352 367 -414 871 -145 1162 82 90 215 167 326
191 54 12 56 -6 64 -499 6 -401 9 -447 28 -517 11 -42 33 -99 47 -128 75 -148
247 -233 503 -247 l112 -6 0 756 c0 417 2 757 5 757 2 0 94 -24 202 -54 212
-58 283 -83 352 -123 l43 -25 -4 -72 c-6 -89 -35 -187 -103 -346 -86 -201
-107 -282 -112 -445 -5 -122 -3 -152 16 -224 76 -292 319 -535 627 -627 119
-35 325 -44 457 -20 273 52 521 196 652 381 103 145 145 277 152 480 7 173
-17 329 -78 509 -73 220 -174 380 -344 545 -256 249 -522 366 -1510 665 -154
46 -293 89 -309 96 l-29 11 6 182 c16 494 130 940 353 1387 144 289 299 513
494 714 323 335 679 525 1055 561 l70 7 -174 -116 c-696 -465 -1110 -913
-1236 -1341 -20 -65 -28 -122 -32 -206 l-6 -116 94 -7 c148 -11 410 16 584 60
254 65 515 172 742 305 737 434 1269 1115 1408 1804 14 69 23 130 20 135 -3 4
-74 36 -158 69 -766 303 -1347 331 -1947 95 -232 -92 -405 -207 -591 -393
-217 -217 -352 -425 -610 -946 -92 -187 -168 -336 -169 -331 0 4 25 108 56
230 117 462 249 890 392 1266 217 576 302 986 302 1462 -1 920 -387 1738
-1191 2523 -587 573 -1282 982 -2134 1258 -311 100 -734 203 -995 241 -78 11
-513 56 -545 56 -2 0 -7 -21 -12 -47z"/>
</g>
</svg>
